<?xml version="1.0" encoding="UTF-8"?>
<svg version="1.1" xmlns="http://www.w3.org/2000/svg" width="500" height="500">
<path d="M0 0 C2.86717129 0.00315154 5.73329749 -0.02037778 8.6003418 -0.0456543 C25.57615261 -0.10399852 42.35804412 1.65283207 58.88745117 5.62817383 C59.78343018 5.83837158 60.67940918 6.04856934 61.60253906 6.26513672 C76.02846346 9.74348488 90.10360387 14.36121551 103.69995117 20.31567383 C104.78977295 20.79278809 104.78977295 20.79278809 105.90161133 21.27954102 C127.72517123 30.96153326 147.5594484 43.80623635 165.69995117 59.31567383 C166.85817383 60.30567383 166.85817383 60.30567383 168.03979492 61.31567383 C180.83627686 72.55784099 192.6275215 84.57377813 202.69995117 98.31567383 C203.12469727 98.88495605 203.54944336 99.45423828 203.98706055 100.04077148 C210.5023866 108.78126374 216.32471974 117.83357698 221.69995117 127.31567383 C222.26262695 128.30325684 222.26262695 128.30325684 222.83666992 129.31079102 C234.99708223 150.86128279 243.39034266 174.44548422 248.51245117 198.62817383 C248.70734131 199.54501953 248.90223145 200.46186523 249.10302734 201.40649414 C252.30119225 217.41282322 253.07598788 233.1582886 253.01245117 249.44067383 C253.01029602 250.43490356 253.00814087 251.4291333 253.00592041 252.45349121 C252.9555923 266.91947748 252.66671811 281.10586496 249.69995117 295.31567383 C249.39395996 296.80405762 249.39395996 296.80405762 249.08178711 298.32250977 C240.14743197 340.57537707 222.00328762 379.52140208 193.69995117 412.31567383 C193.0425293 413.08395508 192.38510742 413.85223633 191.70776367 414.64379883 C180.47113166 427.44931908 168.44395163 439.24170142 154.69995117 449.31567383 C153.84602783 449.95279297 153.84602783 449.95279297 152.97485352 450.6027832 C144.23436126 457.11810926 135.18204802 462.9404424 125.69995117 468.31567383 C124.71236816 468.87834961 124.71236816 468.87834961 123.70483398 469.45239258 C102.15434221 481.61280489 78.57014078 490.00606532 54.38745117 495.12817383 C53.47060547 495.32306396 52.55375977 495.5179541 51.60913086 495.71875 C35.60280178 498.91691491 19.8573364 499.69171053 3.57495117 499.62817383 C2.58072144 499.62601868 1.5864917 499.62386353 0.56213379 499.62164307 C-13.90385248 499.57131496 -28.09023996 499.28244077 -42.30004883 496.31567383 C-43.78843262 496.00968262 -43.78843262 496.00968262 -45.30688477 495.69750977 C-87.55975207 486.76315463 -126.50577708 468.61901028 -159.30004883 440.31567383 C-160.4524707 439.32954102 -160.4524707 439.32954102 -161.62817383 438.32348633 C-174.43369408 427.08685432 -186.22607642 415.05967428 -196.30004883 401.31567383 C-196.93716797 400.46175049 -196.93716797 400.46175049 -197.5871582 399.59057617 C-204.10248426 390.85008392 -209.9248174 381.79777067 -215.30004883 372.31567383 C-215.67516602 371.65728516 -216.0502832 370.99889648 -216.43676758 370.32055664 C-228.59717989 348.77006486 -236.99044032 325.18586343 -242.11254883 301.00317383 C-242.30743896 300.08632813 -242.5023291 299.16948242 -242.703125 298.22485352 C-245.90128991 282.21852443 -246.67608553 266.47305905 -246.61254883 250.19067383 C-246.61039368 249.19644409 -246.60823853 248.20221436 -246.60601807 247.17785645 C-246.55568996 232.71187018 -246.26681577 218.5254827 -243.30004883 204.31567383 C-243.09605469 203.32341797 -242.89206055 202.33116211 -242.68188477 201.30883789 C-233.74752963 159.05597059 -215.60338528 120.10994558 -187.30004883 87.31567383 C-186.64262695 86.54739258 -185.98520508 85.77911133 -185.30786133 84.98754883 C-174.07122932 72.18202858 -162.04404928 60.38964623 -148.30004883 50.31567383 C-147.7307666 49.89092773 -147.16148437 49.46618164 -146.57495117 49.02856445 C-137.83445892 42.5132384 -128.78214567 36.69090526 -119.30004883 31.31567383 C-118.64166016 30.94055664 -117.98327148 30.56543945 -117.30493164 30.17895508 C-95.75443986 18.01854277 -72.17023843 9.62528234 -47.98754883 4.50317383 C-46.61228027 4.21083862 -46.61228027 4.21083862 -45.20922852 3.91259766 C-30.15226843 0.90412263 -15.32424217 -0.03502536 0 0 Z " fill="#F8B600" transform="translate(246.300048828125,-0.315673828125)"/>
<path d="M0 0 C2.29055771 -0.00217275 4.58062168 -0.02034252 6.87109375 -0.03930664 C16.50147328 -0.07612007 25.66295138 0.68226035 35.19140625 2.18530273 C36.85376983 2.41347328 38.51648001 2.63914864 40.1796875 2.86108398 C63.79464821 6.25135062 86.20698854 13.85871762 107.19140625 25.18530273 C108.72474609 25.99741211 108.72474609 25.99741211 110.2890625 26.82592773 C129.91389868 37.70807108 147.21069217 52.9104935 160.19140625 71.18530273 C160.59198242 71.74830078 160.99255859 72.31129883 161.40527344 72.89135742 C175.20125327 92.60152482 185.19140625 116.88033061 185.19140625 141.18530273 C157.47140625 141.18530273 129.75140625 141.18530273 101.19140625 141.18530273 C99.54140625 136.56530273 97.89140625 131.94530273 96.19140625 127.18530273 C87.41240112 109.23711447 74.32337815 97.32802608 55.76806641 90.05786133 C47.18488586 87.1512584 38.11610233 85.64636936 29.19140625 84.18530273 C27.96421875 83.98291992 26.73703125 83.78053711 25.47265625 83.57202148 C18.77571033 82.80433324 11.98706481 82.94165072 5.25390625 82.93530273 C4.51497131 82.93429565 3.77603638 82.93328857 3.01470947 82.93225098 C-7.90530937 82.9423289 -18.17953507 83.49011881 -28.80859375 86.18530273 C-30.05511719 86.45213867 -31.30164063 86.71897461 -32.5859375 86.99389648 C-42.47179795 89.28937492 -51.00675588 93.27026888 -59.80859375 98.18530273 C-60.83210938 98.7537793 -61.855625 99.32225586 -62.91015625 99.90795898 C-82.97119457 111.85981702 -93.59952498 132.60858039 -99.24902344 154.56298828 C-101.02864631 161.7452521 -101.98211566 168.57120885 -102.08203125 175.96655273 C-102.10082336 177.23041306 -102.10082336 177.23041306 -102.11999512 178.51980591 C-102.48636571 204.73113109 -102.48636571 204.73113109 -96.80859375 230.18530273 C-96.57333984 230.89702637 -96.33808594 231.60875 -96.09570312 232.34204102 C-91.61747225 245.5885986 -84.5694406 256.24154393 -74.80859375 266.18530273 C-73.81279297 267.2178418 -73.81279297 267.2178418 -72.796875 268.27124023 C-52.78169458 287.56206174 -23.78892958 292.3574638 2.89013672 292.42553711 C5.15891309 292.43516485 7.42675057 292.46623327 9.6953125 292.49780273 C23.67230836 292.59987446 37.05583417 290.55819509 50.44140625 286.43530273 C51.27784668 286.1785376 52.11428711 285.92177246 52.97607422 285.65722656 C64.89661585 281.84095457 74.34426067 276.12656688 83.19140625 267.18530273 C84.12726563 266.2997168 84.12726563 266.2997168 85.08203125 265.39624023 C93.3030726 256.9900403 97.55770663 245.08640159 101.19140625 234.18530273 C128.91140625 234.18530273 156.63140625 234.18530273 185.19140625 234.18530273 C182.37138915 270.84552501 165.96650151 304.79242817 138.55078125 329.57202148 C135.81943043 331.86012678 133.03546241 334.03898835 130.19140625 336.18530273 C129.66708008 336.58458984 129.14275391 336.98387695 128.60253906 337.39526367 C113.59590255 348.74996029 97.81801219 356.67747256 80.19140625 363.18530273 C79.52254395 363.43795898 78.85368164 363.69061523 78.16455078 363.95092773 C54.4945788 372.82485631 28.19585477 375.80158238 3.06640625 375.62280273 C2.13596497 375.61942902 1.20552368 375.6160553 0.24688721 375.61257935 C-49.55663117 375.35250459 -97.68468391 360.35924869 -133.39453125 324.59545898 C-134.77618184 323.21604408 -136.17614197 321.8533237 -137.625 320.54467773 C-168.24213928 292.32485361 -181.37098827 245.43004787 -183.80859375 205.18530273 C-183.99629995 199.26819202 -184.05419221 193.35515636 -184.05859375 187.43530273 C-184.05926849 186.61682861 -184.05994324 185.79835449 -184.06063843 184.95507812 C-184.01642623 151.0761403 -177.15214262 118.07537794 -160.80859375 88.18530273 C-160.23238281 87.11795898 -159.65617187 86.05061523 -159.0625 84.95092773 C-152.69951114 73.6062917 -144.73927031 63.60572608 -135.80859375 54.18530273 C-134.926875 53.23913086 -134.04515625 52.29295898 -133.13671875 51.31811523 C-120.59637428 38.12842556 -106.01109211 28.3461715 -89.80859375 20.18530273 C-89.09509766 19.82452637 -88.38160156 19.46375 -87.64648438 19.09204102 C-67.53184251 9.11293346 -45.95070859 4.18513348 -23.80859375 1.18530273 C-22.77605469 1.02952759 -22.77605469 1.02952759 -21.72265625 0.87060547 C-14.52090845 -0.10304733 -7.25335461 -0.00076706 0 0 Z " fill="#FEFEFD" transform="translate(244.80859375,59.814697265625)"/>
</svg>
